#N canvas 113 66 1209 730 10;
#X obj 867 56 bng 15 250 50 0 empty empty empty 17 7 0 10 -262144 -1
-1;
#X msg 18 238 symbol bf;
#X obj 89 224 bng 15 250 50 0 empty empty empty 17 7 0 10 -262144 -1
-1;
#X obj 849 2 bng 15 250 50 0 empty empty empty 17 7 0 10 -262144 -1
-1;
#X obj 540 285 bng 15 250 50 0 empty empty empty 17 7 0 10 -262144
-1 -1;
#X text 32 78 octave;
#X text 107 81 tempo;
#X floatatom 143 152 5 0 0 0 - - -, f 5;
#X floatatom 49 109 5 0 0 0 - octave -, f 5;
#X obj 95 108 hsl 128 15 60 300 0 0 empty tempo empty -2 -8 0 10 -262144
-1 -1 6200 1;
#X floatatom 291 155 5 0 0 0 - - -, f 5;
#X obj 243 111 hsl 128 15 1 8 0 0 empty delay empty -2 -8 0 10 -262144
-1 -1 0 1;
#X text 255 84 delay factor;
#X text 633 150 octave;
#X text 708 153 tempo;
#X floatatom 744 224 5 0 0 0 - - -, f 5;
#X floatatom 644 179 5 0 0 0 - octave -, f 5;
#X obj 696 180 hsl 128 15 60 300 0 0 empty tempo empty -2 -8 0 10 -262144
-1 -1 0 1;
#X floatatom 892 227 5 0 0 0 - - -, f 5;
#X obj 838 183 hsl 128 15 1 8 0 0 empty delay empty -2 -8 0 10 -262144
-1 -1 0 1;
#X text 856 156 delay factor;
#X obj 142 301 loadbang;
#X obj 79 396 list;
#X obj 152 397 print;
#X obj 10 298 bng 15 250 50 0 empty empty empty 17 7 0 10 -262144 -1
-1;
#X floatatom 74 320 5 0 0 0 - - -, f 5;
#X obj 873 10 construct-pitch-matrix gregorian2.txt mat-1;
#X obj 99 288 bng 15 250 50 0 empty empty empty 17 7 0 10 -262144 -1
-1;
#X obj 142 326 144;
#X obj 842 22 bng 15 250 50 0 empty empty empty 17 7 0 10 -262144 -1
-1;
#X obj 858 37 construct-rhythm-matrix greg-rhythm.txt rhy-mat1;
#X msg 463 305 symbol d;
#X obj 903 113 replace-pitch-matrix-row mat-1;
#X obj 887 67 construct-pitch-matrix gregorian.txt mat-0;
#X obj 889 93 replace-rhythm-matrix-row rhy-mat1;
#X msg 840 76 c 4 1, f 6;
#X obj 982 184 hsl 128 15 0 1 0 0 empty pitch-temp empty -2 -8 0 10
-262144 -1 -1 6350 1;
#X floatatom 965 238 5 0 0 0 - - -, f 5;
#X text 991 166 pitch temperature;
#X obj 1068 228 hsl 128 15 0 1 0 0 empty rhy-temp empty -2 -8 0 10
-262144 -1 -1 6350 1;
#X floatatom 1051 282 5 0 0 0 - - -, f 5;
#X text 1077 210 rhythm temperature;
#X obj 397 112 hsl 128 15 0 1 0 0 empty pitch-temp empty -2 -8 0 10
-262144 -1 -1 6350 1;
#X floatatom 380 166 5 0 0 0 - - -, f 5;
#X text 406 94 pitch temperature;
#X obj 483 156 hsl 128 15 0 1 0 0 empty rhy-temp empty -2 -8 0 10 -262144
-1 -1 6350 1;
#X floatatom 466 210 5 0 0 0 - - -, f 5;
#X text 492 138 rhythm temperature;
#X text 549 60 Low temperature value -> More deterministic.;
#X text 550 79 High Temperature value -> More random.;
#X msg 853 105 d f 1;
#X obj 171 253 markov-voice mat-0 rhy-mat1, f 29;
#X obj 569 551 dac~;
#X obj 784 482 *~;
#X obj 568 485 *~;
#X obj 780 410 hsl 128 20 0 1 0 0 empty pan Panning -2 -8 0 10 -262144
-1 -1 6350 1;
#X floatatom 805 435 5 0 0 0 - - -, f 5;
#X text 832 370 0.5: Centre;
#X text 830 388 1: 100% Right;
#X text 833 357 0: 100% Left;
#X obj 568 442 mono-sqrt-power-panning;
#X obj 1067 640 line~;
#X obj 1067 606 pack f 50;
#X obj 1067 503 vsl 24 90 0 1 0 0 empty empty empty 0 -9 0 10 -262144
-1 -1 1200 1;
#X obj 1067 673 s~ master-vol;
#X obj 860 449 r~ master-vol;
#X obj 30 562 loadbang;
#X msg 30 593 \; pan 0.5 \; tempo 120 \; delay 1 \; pitch-temp 0.5
\; rhy-temp 0.5 \; octave 4;
#X obj 199 514 savepanel;
#X msg 213 579 start;
#X msg 222 607 stop;
#X text 281 515 Open browser;
#X text 258 578 start writing;
#X text 260 606 stop writing;
#X msg 199 546 open -wave -bytes 3 \$1;
#X obj 199 486 bng 17 250 50 0 empty empty open 19 7 0 10 -262144 -1
-1;
#X text 197 460 Write sound to file;
#X obj 199 673 writesf~ 2;
#X obj 226 641 r~ Left;
#X obj 290 641 r~ Right;
#X obj 589 513 s~ Left;
#X obj 804 510 s~ Right;
#X obj 700 322 markov-voice mat-1 rhy-mat1, f 39;
#X obj 79 355 array get mat-1;
#X connect 0 0 33 0;
#X connect 1 0 51 0;
#X connect 2 0 51 1;
#X connect 3 0 26 0;
#X connect 4 0 82 1;
#X connect 8 0 51 2;
#X connect 9 0 7 0;
#X connect 9 0 51 3;
#X connect 11 0 10 0;
#X connect 11 0 51 4;
#X connect 16 0 82 2;
#X connect 17 0 15 0;
#X connect 17 0 82 3;
#X connect 19 0 18 0;
#X connect 19 0 82 4;
#X connect 21 0 28 0;
#X connect 24 0 83 0;
#X connect 25 0 83 0;
#X connect 27 0 28 0;
#X connect 28 0 83 1;
#X connect 29 0 30 0;
#X connect 31 0 82 0;
#X connect 35 0 34 0;
#X connect 36 0 37 0;
#X connect 36 0 82 5;
#X connect 39 0 40 0;
#X connect 39 0 82 6;
#X connect 42 0 43 0;
#X connect 42 0 51 5;
#X connect 45 0 46 0;
#X connect 45 0 51 6;
#X connect 50 0 32 0;
#X connect 51 0 60 0;
#X connect 53 0 52 1;
#X connect 53 0 81 0;
#X connect 54 0 52 0;
#X connect 54 0 80 0;
#X connect 55 0 56 0;
#X connect 55 0 60 1;
#X connect 60 0 54 0;
#X connect 60 1 53 0;
#X connect 61 0 64 0;
#X connect 62 0 61 0;
#X connect 63 0 62 0;
#X connect 65 0 53 1;
#X connect 65 0 54 1;
#X connect 66 0 67 0;
#X connect 68 0 74 0;
#X connect 69 0 77 0;
#X connect 70 0 77 0;
#X connect 74 0 77 0;
#X connect 75 0 68 0;
#X connect 78 0 77 0;
#X connect 79 0 77 1;
#X connect 82 0 60 0;
#X connect 83 0 22 0;
#X connect 83 0 23 0;
