#N canvas 137 40 962 617 10;
#X obj 267 81 inlet;
#X obj 373 87 inlet;
#X obj 164 80 inlet;
#X obj 574 82 inlet;
#X text 304 84 Attack;
#X text 412 87 Decay;
#X text 614 85 Release;
#X obj 164 113 sel 0;
#X obj 191 136 t b b b;
#X obj 209 201 pack 1 0;
#X obj 132 222 0;
#X obj 134 294 line~;
#X obj 133 352 outlet~;
#X obj 279 190 delay;
#X obj 306 155 + 1;
#X obj 279 218 pack 0 0 0;
#X obj 484 82 inlet;
#X text 521 84 Sustain;
#X obj 279 244 route 0;
#X msg 164 159 stop;
#X obj 574 123 s \$0-rel;
#X obj 81 122 r \$0-rel;
#X obj 81 166 pack 0 0;
#X text 200 82 Velocity;
#X text 454 361 This patch was adapted from the synthesizer created
in the tutorial by Eduardo Mezêncio at http://libremusicproduction.com/tutorials/creating-simple-synthesizer-pure-data-%E2%80%93-part-ii.
;
#X connect 0 0 9 1;
#X connect 0 0 14 0;
#X connect 1 0 15 2;
#X connect 2 0 7 0;
#X connect 3 0 20 0;
#X connect 7 0 19 0;
#X connect 7 0 22 0;
#X connect 7 1 8 0;
#X connect 8 0 13 0;
#X connect 8 1 9 0;
#X connect 8 2 10 0;
#X connect 9 0 11 0;
#X connect 10 0 11 0;
#X connect 11 0 12 0;
#X connect 13 0 15 0;
#X connect 14 0 13 1;
#X connect 15 0 18 0;
#X connect 16 0 15 1;
#X connect 18 0 11 0;
#X connect 19 0 13 0;
#X connect 21 0 22 1;
#X connect 22 0 11 0;
