#N canvas 141 44 886 637 10;
#X obj 338 161 list;
#X obj 191 116 list;
#X obj 213 207 list split 1;
#X obj 339 207 list split 1;
#X obj 190 53 list;
#X obj 272 252 list append;
#X obj 77 244 list;
#X obj 274 323 list prepend;
#X obj 77 221 t b b;
#X obj 188 144 t l b;
#X obj 245 280 t l;
#X obj 317 467 list append;
#X obj 275 407 t b l;
#X obj 115 81 t b;
#X obj 189 24 inlet;
#X obj 352 24 inlet;
#X text 226 24 list 1;
#X text 389 24 list 2;
#X text 12 271 clear list so we build from scratch.;
#X obj 190 76 t l b;
#X text 430 207 Take first element from each list and construct a new
list.;
#X text 386 317 Add current list pair to what we have so far.;
#X text 396 465 When we can no longer split \, output final list.;
#X text 381 342 Restart process using the rest of the lists.;
#X obj 315 529 outlet;
#X text 437 22 This patch combines two lists into one by alternatively
taking an element from list 1 and then taking an element from list
2;
#X connect 0 0 3 0;
#X connect 1 0 9 0;
#X connect 2 0 5 0;
#X connect 2 1 1 1;
#X connect 3 0 5 1;
#X connect 3 1 0 1;
#X connect 3 2 11 0;
#X connect 4 0 19 0;
#X connect 5 0 7 0;
#X connect 6 0 7 1;
#X connect 7 0 10 0;
#X connect 7 0 12 0;
#X connect 8 0 6 0;
#X connect 8 1 6 1;
#X connect 9 0 2 0;
#X connect 9 1 0 0;
#X connect 10 0 7 1;
#X connect 11 0 24 0;
#X connect 12 0 13 0;
#X connect 12 1 11 1;
#X connect 13 0 1 0;
#X connect 14 0 4 0;
#X connect 15 0 0 1;
#X connect 19 0 1 0;
#X connect 19 1 8 0;
