#N canvas 94 23 1010 571 10;
#X obj 251 36 inlet;
#X text 305 30 message or list to replace row in matrix as specified
by first symbol;
#X obj 252 81 t l b b;
#X msg 581 93 const 0;
#X obj 252 142 list split 2;
#X obj 252 169 list split 1;
#X obj 296 108 list append;
#X obj 300 207 t f;
#X obj 234 337 list append;
#X obj 159 393 array set \$0-row;
#X obj 114 92 t b;
#X text 85 73 process next pair;
#X obj 168 307 t b b f;
#X text 357 70 First \, create row of all zeroes.;
#X obj 455 245 t b;
#X obj 455 337 outlet;
#X obj 455 282 array get \$0-row;
#X obj 455 308 list;
#X text 573 271 When list processing is complete \, output list representing
one row.;
#X obj 252 59 list;
#X obj 580 114 array define \$0-row 8;
#X obj 252 206 t f;
#X obj 167 255 duration-to-num;
#X text 376 169 Add each probability to array as specified by duration.
;
#X connect 0 0 19 0;
#X connect 2 0 4 0;
#X connect 2 1 3 0;
#X connect 2 2 20 0;
#X connect 3 0 20 0;
#X connect 4 0 5 0;
#X connect 4 1 6 1;
#X connect 4 2 14 0;
#X connect 5 0 21 0;
#X connect 5 1 7 0;
#X connect 6 0 4 0;
#X connect 7 0 8 1;
#X connect 8 0 9 0;
#X connect 10 0 6 0;
#X connect 12 0 10 0;
#X connect 12 1 8 0;
#X connect 12 2 9 1;
#X connect 14 0 16 0;
#X connect 16 0 17 0;
#X connect 17 0 15 0;
#X connect 19 0 2 0;
#X connect 21 0 22 0;
#X connect 22 0 12 0;
