#N canvas 306 56 1078 580 10;
#X obj 87 20 inlet;
#X obj 480 128 print invalid;
#X text 140 17 note name;
#X obj 260 247 outlet;
#X obj 87 128 0;
#X obj 119 128 1;
#X obj 151 128 2;
#X obj 184 128 3;
#X obj 216 128 4;
#X obj 248 128 5;
#X obj 280 128 6;
#X text 351 392 This patch is adapted from the monks.pd patch provided
by Michael Edwards at http://michael-edwards.org/class/edi/music2d/markov.html
;
#X text 12 286 convert duration to a corresponding number between 0
and 7;
#X obj 87 63 sel 0.5 1 1.5 2 2.5 3 3.5 4;
#X obj 317 128 7;
#X connect 0 0 13 0;
#X connect 4 0 3 0;
#X connect 5 0 3 0;
#X connect 6 0 3 0;
#X connect 7 0 3 0;
#X connect 8 0 3 0;
#X connect 9 0 3 0;
#X connect 10 0 3 0;
#X connect 13 0 4 0;
#X connect 13 1 5 0;
#X connect 13 2 6 0;
#X connect 13 3 7 0;
#X connect 13 4 8 0;
#X connect 13 5 9 0;
#X connect 13 6 10 0;
#X connect 13 7 14 0;
#X connect 13 8 1 0;
#X connect 14 0 3 0;
