#N canvas 504 34 857 469 10;
#X obj 297 168 sel 1;
#X obj 284 17 inlet;
#X obj 276 332 outlet;
#X obj 225 171 t b;
#X obj 224 204 2;
#X obj 324 195 t b;
#X obj 324 221 20;
#X obj 285 104 t f f f;
#X obj 224 242 *;
#X obj 324 250 *;
#X text 340 20 Map value to be between 11 and 0 where 0 -> 11 \, 0.5
-> 1 \, and 1 -> 0;
#X obj 298 146 < 0.5;
#X obj 372 180 - 0.45;
#X obj 284 41 * -1;
#X obj 285 71 + 1;
#X text 348 94 Take 1 - the input and convert that number to be between
0 and 11;
#X text 357 223 Multiply by 20 to make number between 1 and 11;
#X text 422 181 Subtract 0.45 to get number between 0.05 and 0.55;
#X text 10 143 Multiply by 2 to make number between 0 and 1;
#X text 337 47 This mapping ensures that if the temperature value is
0.5 \, then the number output will be identical to the number input.
;
#X connect 0 0 3 0;
#X connect 0 1 5 0;
#X connect 1 0 13 0;
#X connect 3 0 4 0;
#X connect 4 0 8 0;
#X connect 5 0 6 0;
#X connect 6 0 9 0;
#X connect 7 0 11 0;
#X connect 7 1 8 1;
#X connect 7 2 12 0;
#X connect 8 0 2 0;
#X connect 9 0 2 0;
#X connect 11 0 0 0;
#X connect 12 0 9 1;
#X connect 13 0 14 0;
#X connect 14 0 7 0;
