#N canvas 504 34 627 391 10;
#X obj 92 107 < 0.5;
#X obj 91 129 sel 1;
#X obj 78 39 inlet;
#X obj 70 293 outlet;
#X obj 167 166 - 0.45;
#X obj 20 140 t b;
#X obj 22 181 2;
#X text 217 166 Subtract 0.45 to get number between 0.01 and 0.55;
#X obj 118 156 t b;
#X obj 118 182 20;
#X obj 79 67 t f f f;
#X obj 23 219 *;
#X obj 118 209 *;
#X text 136 38 Map value to be between 0 and 11 where 0 -> 0 \, 0.5
-> 1 \, and 1 -> 11;
#X connect 0 0 1 0;
#X connect 1 0 5 0;
#X connect 1 1 8 0;
#X connect 2 0 10 0;
#X connect 4 0 12 1;
#X connect 5 0 6 0;
#X connect 6 0 11 0;
#X connect 8 0 9 0;
#X connect 9 0 12 0;
#X connect 10 0 0 0;
#X connect 10 1 11 1;
#X connect 10 2 4 0;
#X connect 11 0 3 0;
#X connect 12 0 3 0;
