#N canvas 0 22 605 472 10;
#X obj 36 36 inlet~;
#X obj 36 208 *~;
#X obj 107 209 *~;
#X obj 129 88 sig~ 1;
#X obj 129 163 sqrt~;
#X obj 185 164 sqrt~;
#X obj 246 95 line~;
#X obj 246 65 pack f 50;
#X obj 246 34 inlet;
#X obj 36 270 outlet~;
#X obj 107 271 outlet~;
#X floatatom 213 251 5 0 0 0 - - -, f 5;
#X floatatom 300 252 5 0 0 0 - - -, f 5;
#X obj 129 133 -~;
#X obj 213 221 snapshot~;
#X obj 300 221 snapshot~;
#X obj 300 177 metro 10;
#X msg 300 138 bang;
#X msg 351 139 stop;
#X text 202 332 This patch was originally created by Dimitris Papageorgiou.
It can be found at http://michael-edwards.org/class/edi/music2d/dimitris6.zip
;
#X connect 0 0 1 0;
#X connect 0 0 2 0;
#X connect 1 0 9 0;
#X connect 2 0 10 0;
#X connect 3 0 13 0;
#X connect 4 0 1 1;
#X connect 4 0 14 0;
#X connect 5 0 2 1;
#X connect 5 0 15 0;
#X connect 6 0 5 0;
#X connect 6 0 13 1;
#X connect 7 0 6 0;
#X connect 8 0 7 0;
#X connect 13 0 4 0;
#X connect 14 0 11 0;
#X connect 15 0 12 0;
#X connect 16 0 14 0;
#X connect 16 0 15 0;
#X connect 17 0 16 0;
#X connect 18 0 16 0;
