#N canvas 82 23 743 473 10;
#X obj 87 20 inlet;
#X obj 87 63 sel c cs df d ds ef e f fs gf g gs af a as bf b;
#X obj 480 128 print invalid;
#X text 140 17 note name;
#X obj 260 247 outlet;
#X obj 87 128 0;
#X obj 119 128 1;
#X obj 151 128 2;
#X obj 184 128 3;
#X obj 216 128 4;
#X obj 248 128 5;
#X obj 280 128 6;
#X obj 313 128 7;
#X obj 347 128 8;
#X obj 378 128 9;
#X obj 410 128 10;
#X obj 443 128 11;
#X text 351 392 This patch is adapted from the monks.pd patch provided
by Michael Edwards at http://michael-edwards.org/class/edi/music2d/markov.html
;
#X text 12 286 convert a note as a symbol to a corresponding number
between 0 and 11;
#X connect 0 0 1 0;
#X connect 1 0 5 0;
#X connect 1 1 6 0;
#X connect 1 2 6 0;
#X connect 1 3 7 0;
#X connect 1 4 8 0;
#X connect 1 5 8 0;
#X connect 1 6 9 0;
#X connect 1 7 10 0;
#X connect 1 8 11 0;
#X connect 1 9 11 0;
#X connect 1 10 12 0;
#X connect 1 11 13 0;
#X connect 1 12 13 0;
#X connect 1 13 14 0;
#X connect 1 14 15 0;
#X connect 1 15 15 0;
#X connect 1 16 16 0;
#X connect 1 17 2 0;
#X connect 5 0 4 0;
#X connect 6 0 4 0;
#X connect 7 0 4 0;
#X connect 8 0 4 0;
#X connect 9 0 4 0;
#X connect 10 0 4 0;
#X connect 11 0 4 0;
#X connect 12 0 4 0;
#X connect 13 0 4 0;
#X connect 14 0 4 0;
#X connect 15 0 4 0;
#X connect 16 0 4 0;
