#N canvas 204 51 717 346 12;
#X obj 87 20 inlet;
#X obj 87 63 sel c cs df d ds ef e f fs gf g gs af a as bf b;
#X obj 87 128 60;
#X obj 119 128 61;
#X obj 151 128 62;
#X obj 184 128 63;
#X obj 480 128 print invalid;
#X obj 216 128 64;
#X obj 248 128 65;
#X obj 280 128 66;
#X obj 313 128 67;
#X obj 347 128 68;
#X obj 378 128 69;
#X obj 410 128 70;
#X obj 443 128 71;
#X obj 633 20 inlet;
#X text 140 17 note name;
#X text 569 19 octave;
#X obj 260 190 +;
#X obj 260 247 outlet;
#X obj 633 51 - 4;
#X obj 633 79 * 12;
#X obj 633 170 t f;
#X text 12 286 convert a note as name and octave (middle c = c4) to
a midi note number;
#X connect 0 0 1 0;
#X connect 1 0 2 0;
#X connect 1 1 3 0;
#X connect 1 2 3 0;
#X connect 1 3 4 0;
#X connect 1 4 5 0;
#X connect 1 5 5 0;
#X connect 1 6 7 0;
#X connect 1 7 8 0;
#X connect 1 8 9 0;
#X connect 1 9 9 0;
#X connect 1 10 10 0;
#X connect 1 11 11 0;
#X connect 1 12 11 0;
#X connect 1 13 12 0;
#X connect 1 14 13 0;
#X connect 1 15 13 0;
#X connect 1 16 14 0;
#X connect 1 17 6 0;
#X connect 2 0 18 0;
#X connect 3 0 18 0;
#X connect 4 0 18 0;
#X connect 5 0 18 0;
#X connect 7 0 18 0;
#X connect 8 0 18 0;
#X connect 9 0 18 0;
#X connect 10 0 18 0;
#X connect 11 0 18 0;
#X connect 12 0 18 0;
#X connect 13 0 18 0;
#X connect 14 0 18 0;
#X connect 15 0 20 0;
#X connect 18 0 19 0;
#X connect 20 0 21 0;
#X connect 21 0 22 0;
#X connect 22 0 18 1;
