#N canvas 180 35 706 441 10;
#X obj 125 38 inlet;
#X obj 126 121 osc~;
#X obj 125 222 *~;
#X obj 125 285 outlet~;
#X obj 126 94 mtof;
#X obj 126 65 unpack 0 0;
#X obj 300 158 - 10;
#X obj 334 158 - 10;
#X obj 402 162 - 10;
#X obj 182 125 sel 0;
#X obj 184 158 / 127;
#X obj 125 258 *~;
#X text 305 263 This patch was adapted from the synthesizer created
in the tutorial by Eduardo Mezêncio at http://libremusicproduction.com/tutorials/creating-simple-synthesizer-pure-data-%E2%80%93-part-ii.
;
#X text 161 39 list with midi value and velocity.;
#X obj 270 191 adsr, f 20;
#X obj 390 42 inlet;
#X text 385 25 Attack;
#X obj 434 42 inlet;
#X text 429 25 Decay;
#X obj 475 42 inlet;
#X text 470 25 Sustain;
#X obj 522 42 inlet;
#X text 517 25 Release;
#X obj 126 149 *~ 0.3;
#X connect 0 0 5 0;
#X connect 1 0 23 0;
#X connect 2 0 11 0;
#X connect 4 0 1 0;
#X connect 5 0 4 0;
#X connect 5 1 9 0;
#X connect 5 1 14 0;
#X connect 6 0 14 1;
#X connect 7 0 14 2;
#X connect 8 0 14 4;
#X connect 9 1 10 0;
#X connect 10 0 11 1;
#X connect 11 0 3 0;
#X connect 14 0 2 1;
#X connect 15 0 6 0;
#X connect 17 0 7 0;
#X connect 19 0 14 3;
#X connect 21 0 8 0;
#X connect 23 0 2 0;
