#N canvas 180 35 706 441 10;
#X obj 125 38 inlet;
#X obj 126 121 osc~;
#X obj 125 222 *~;
#X obj 125 285 outlet~;
#X obj 496 18 vsl 15 128 10 10010 1 0 empty empty empty 0 -9 0 10 -262144
-1 -1 0 1;
#X obj 541 24 vsl 15 128 10 10010 1 0 empty empty empty 0 -9 0 10 -262144
-1 -1 0 1;
#X obj 645 33 vsl 15 128 10 10010 1 0 empty empty empty 0 -9 0 10 -262144
-1 -1 0 1;
#X obj 594 47 vsl 15 128 0 1 0 0 empty empty empty 0 -9 0 10 -262144
-1 -1 0 1;
#X obj 126 94 mtof;
#X obj 126 65 unpack 0 0;
#X floatatom 538 209 5 0 0 0 - - -, f 5;
#X floatatom 594 210 5 0 0 0 - - -, f 5;
#X floatatom 646 208 5 0 0 0 - - -, f 5;
#X obj 492 156 - 10;
#X obj 538 161 - 10;
#X obj 646 170 - 10;
#X obj 299 95 loadbang;
#X obj 356 153 0.5;
#X obj 327 153 35;
#X obj 298 153 112;
#X obj 385 154 180;
#X obj 182 125 sel 0;
#X obj 184 158 / 127;
#X floatatom 492 208 5 0 0 0 - - -, f 5;
#X obj 125 258 *~;
#X text 481 1 attack;
#X text 572 1 sustain;
#X text 626 1 release;
#X obj 299 120 t b b b b;
#X text 327 342 This patch was adapted from the synthesizer created
in the tutorial by Eduardo Mezêncio at http://libremusicproduction.com/tutorials/creating-simple-synthesizer-pure-data-%E2%80%93-part-ii.
;
#X text 161 39 list with midi value and velocity.;
#X obj 269 189 adsr, f 20;
#X text 527 0 decay;
#X obj 126 149 -~ 0.5;
#X connect 0 0 9 0;
#X connect 1 0 33 0;
#X connect 2 0 24 0;
#X connect 4 0 13 0;
#X connect 5 0 14 0;
#X connect 6 0 15 0;
#X connect 7 0 11 0;
#X connect 7 0 31 3;
#X connect 8 0 1 0;
#X connect 9 0 8 0;
#X connect 9 1 21 0;
#X connect 9 1 31 0;
#X connect 13 0 23 0;
#X connect 13 0 31 1;
#X connect 14 0 10 0;
#X connect 14 0 31 2;
#X connect 15 0 12 0;
#X connect 15 0 31 4;
#X connect 16 0 28 0;
#X connect 17 0 31 3;
#X connect 18 0 31 2;
#X connect 19 0 31 1;
#X connect 20 0 31 4;
#X connect 21 1 22 0;
#X connect 22 0 24 1;
#X connect 24 0 3 0;
#X connect 28 0 19 0;
#X connect 28 1 18 0;
#X connect 28 2 17 0;
#X connect 28 3 20 0;
#X connect 31 0 2 1;
#X connect 33 0 2 0;
