#N canvas 95 25 1283 797 10;
#X obj 269 351 list split 2;
#X obj 271 428 list split 1;
#X obj 306 457 t f;
#X obj 301 319 list append;
#X obj 135 546 t b b f;
#X obj 242 561 list append;
#X text 317 531 Store probability in list append object. After the
index is calculated and sent to the array set object \, the probability
stored in the list append object is sent to the array set object to
be added to the flattened transition matrix.;
#X obj 138 632 array set \$1;
#X obj 377 26 inlet;
#X text 431 20 message or list to replace row in matrix as specified
by first symbol;
#X obj 40 309 t b;
#X text 24 283 process next pair;
#X obj 231 262 alternatively-combine-two-lists;
#X obj 384 180 t b l;
#X obj 231 241 list;
#X obj 377 48 list;
#X obj 377 69 list split 1;
#X obj 110 84 t b s;
#X obj 384 145 list;
#X text 517 54 Split off the first symbol. The first symbol specifies
the current pitch being played. The rest of the line specifies the
potential durations and their probabilities.;
#X text 533 107 Send list through create-full-duration-row so that
probabilities for durations not specified will be 0;
#X msg 231 219 0.5 1 1.5 2 2.5 3 3.5 4;
#X text 441 305 Split first two elements (potential duration and probabilitiy)
from list. Send potential duration to note-duration-to-index to calculate
the index in the flattened transition matrix for the probability to
be added to. Send rest of list to be stored in list append and repeat
this process once the previous probability has been added to the transition
matrix..;
#X text 355 434 Split potential duration and probability.;
#X obj 135 485 note-duration-to-index;
#X obj 377 96 create-full-rhythm-row;
#X obj 270 455 t f;
#X connect 0 0 1 0;
#X connect 0 1 3 1;
#X connect 1 0 26 0;
#X connect 1 1 2 0;
#X connect 2 0 5 1;
#X connect 3 0 0 0;
#X connect 4 0 10 0;
#X connect 4 1 5 0;
#X connect 4 2 7 1;
#X connect 5 0 7 0;
#X connect 8 0 15 0;
#X connect 10 0 3 0;
#X connect 12 0 0 0;
#X connect 13 0 21 0;
#X connect 13 1 12 1;
#X connect 14 0 12 0;
#X connect 15 0 16 0;
#X connect 16 0 17 0;
#X connect 16 1 25 0;
#X connect 17 0 18 0;
#X connect 17 1 24 1;
#X connect 18 0 13 0;
#X connect 21 0 14 0;
#X connect 24 0 4 0;
#X connect 25 0 18 1;
#X connect 26 0 24 0;
