#N canvas 153 23 1094 618 10;
#X obj 404 362 pack 0 50;
#X obj 404 392 line~;
#X obj 404 335 / 127;
#X obj 138 61 inlet;
#X obj 164 572 outlet~;
#X obj 398 61 inlet;
#X obj 258 62 inlet;
#X obj 164 227 pack 0 0 0;
#X obj 177 137 delay;
#X msg 177 168 stop;
#X obj 138 83 list append 80;
#X obj 138 106 t b l;
#X text 502 20 Sine Wave Synthesizer;
#X obj 165 469 hip~;
#X obj 165 535 lop~, f 6;
#X obj 236 454 hsl 128 15 20 20000 1 0 empty hi-cutoff Cut-off_frequency
-2 -8 0 10 -262144 -1 -1 5918 1;
#X obj 236 510 hsl 128 15 20 20000 1 0 empty lo-cutoff Cut-off_frequency
-2 -8 0 10 -262144 -1 -1 8467 1;
#X floatatom 375 475 12 0 0 0 - - -, f 12;
#X floatatom 373 536 12 0 0 0 - - -, f 12;
#X obj 165 438 *~;
#X obj 535 504 loadbang;
#X obj 165 254 route 1 2 3 4 5;
#X obj 164 195 poly 5 1;
#X msg 535 535 \; hi-cutoff 500 \; lo-cutoff 2000;
#X obj 234 293 note, f 18;
#X obj 488 62 inlet;
#X text 483 45 Attack;
#X obj 488 99 s \$0-attack;
#X obj 566 61 inlet;
#X text 561 44 Decay;
#X obj 566 99 s \$0-decay;
#X obj 638 61 inlet;
#X text 633 44 Sustain;
#X obj 638 99 s \$0-sustain;
#X obj 724 61 inlet;
#X text 719 44 Release;
#X obj 724 99 s \$0-release;
#X obj 167 379 note, f 31;
#X obj 182 357 note, f 28;
#X obj 198 336 note, f 25;
#X obj 217 315 note, f 21;
#X obj 275 218 r \$0-attack;
#X obj 305 237 r \$0-decay;
#X obj 332 256 r \$0-sustain;
#X text 394 45 Volume;
#X text 253 46 Duration;
#X text 136 43 Midi Value;
#X obj 362 276 r \$0-release;
#X obj 340 123 print;
#X text 647 403 This patch was adapted from the synthesizer created
in the tutorial by Eduardo Mezêncio at http://libremusicproduction.com/tutorials/creating-simple-synthesizer-pure-data-%E2%80%93-part-ii.
It also features elements from the tut5-simple-synth.pd patch by Dimitrius
Papageorgiou found at http://michael-edwards.org/class/edi/music2d/dimitris8.zip
;
#X connect 0 0 1 0;
#X connect 1 0 19 1;
#X connect 2 0 0 0;
#X connect 3 0 10 0;
#X connect 3 0 48 0;
#X connect 5 0 2 0;
#X connect 6 0 8 1;
#X connect 7 0 21 0;
#X connect 8 0 9 0;
#X connect 9 0 22 0;
#X connect 10 0 11 0;
#X connect 11 0 8 0;
#X connect 11 1 22 0;
#X connect 13 0 14 0;
#X connect 14 0 4 0;
#X connect 15 0 17 0;
#X connect 15 0 13 1;
#X connect 16 0 18 0;
#X connect 16 0 14 1;
#X connect 19 0 13 0;
#X connect 20 0 23 0;
#X connect 21 0 37 0;
#X connect 21 1 38 0;
#X connect 21 2 39 0;
#X connect 21 3 40 0;
#X connect 21 4 24 0;
#X connect 22 0 7 0;
#X connect 22 1 7 1;
#X connect 22 2 7 2;
#X connect 24 0 19 0;
#X connect 25 0 27 0;
#X connect 28 0 30 0;
#X connect 31 0 33 0;
#X connect 34 0 36 0;
#X connect 37 0 19 0;
#X connect 38 0 19 0;
#X connect 39 0 19 0;
#X connect 40 0 19 0;
#X connect 41 0 24 1;
#X connect 41 0 40 1;
#X connect 41 0 39 1;
#X connect 41 0 38 1;
#X connect 41 0 37 1;
#X connect 42 0 24 2;
#X connect 42 0 40 2;
#X connect 42 0 39 2;
#X connect 42 0 38 2;
#X connect 42 0 37 2;
#X connect 43 0 24 3;
#X connect 43 0 40 3;
#X connect 43 0 39 3;
#X connect 43 0 38 3;
#X connect 43 0 37 3;
#X connect 47 0 24 4;
#X connect 47 0 40 4;
#X connect 47 0 39 4;
#X connect 47 0 38 4;
#X connect 47 0 37 4;
