#N canvas 153 23 1094 618 10;
#X obj 164 416 *~;
#X obj 366 327 pack 0 50;
#X obj 366 357 line~;
#X obj 366 300 / 127;
#X obj 138 61 inlet;
#X text 184 60 midi;
#X obj 164 572 outlet~;
#X obj 365 60 inlet;
#X text 407 59 amplitude;
#X obj 258 62 inlet;
#X text 295 62 duration;
#X obj 164 227 pack 0 0 0;
#X obj 177 137 delay;
#X msg 177 168 stop;
#X obj 138 83 list append 80;
#X obj 138 106 t b l;
#X text 502 20 Sine Wave Synthesizer;
#X text 701 507 This patch was adapted from the synthesizer created
in the tutorial by Eduardo Mezêncio at http://libremusicproduction.com/tutorials/creating-simple-synthesizer-pure-data-%E2%80%93-part-ii.
It also features elements from the tut5-simple-synth.pd patch found
at http://michael-edwards.org/class/edi/music2d/dimitris8.zip;
#X obj 81 274 print;
#X obj 167 379 note;
#X obj 181 357 note;
#X obj 198 336 note;
#X obj 214 315 note;
#X obj 231 295 note;
#X obj 164 195 poly 5 1;
#X obj 165 469 hip~;
#X obj 165 535 lop~, f 6;
#X obj 218 424 hsl 128 15 20 20000 1 0 empty empty Cut-off_frequency
-2 -8 0 10 -262144 -1 -1 300 1;
#X obj 201 483 hsl 128 15 20 20000 1 0 empty empty Cut-off_frequency
-2 -8 0 10 -262144 -1 -1 3500 1;
#X floatatom 215 450 12 0 0 0 - - -, f 12;
#X floatatom 198 509 12 0 0 0 - - -, f 12;
#X obj 165 254 route 1 2 3 4 5;
#X connect 0 0 25 0;
#X connect 1 0 2 0;
#X connect 2 0 0 1;
#X connect 3 0 1 0;
#X connect 4 0 14 0;
#X connect 7 0 3 0;
#X connect 9 0 12 1;
#X connect 11 0 18 0;
#X connect 11 0 31 0;
#X connect 12 0 13 0;
#X connect 13 0 24 0;
#X connect 14 0 15 0;
#X connect 15 0 12 0;
#X connect 15 1 24 0;
#X connect 19 0 0 0;
#X connect 20 0 0 0;
#X connect 21 0 0 0;
#X connect 22 0 0 0;
#X connect 23 0 0 0;
#X connect 24 0 11 0;
#X connect 24 1 11 1;
#X connect 24 2 11 2;
#X connect 25 0 26 0;
#X connect 26 0 6 0;
#X connect 27 0 29 0;
#X connect 28 0 30 0;
#X connect 29 0 25 1;
#X connect 30 0 26 1;
#X connect 31 0 19 0;
#X connect 31 1 20 0;
#X connect 31 2 21 0;
#X connect 31 3 22 0;
#X connect 31 4 23 0;
