#N canvas 241 68 1016 675 10;
#X obj 747 45 inlet;
#X text 782 46 Temperature value vetween 0 and 1;
#X text 318 40 Probabilities List;
#X obj 278 39 inlet;
#X obj 279 84 list;
#X obj 280 176 list split 1;
#X obj 280 143 list split 2;
#X obj 736 204 pow;
#X obj 280 227 list append;
#X obj 281 277 list append;
#X obj 320 252 t l;
#X obj 251 466 outlet;
#X obj 420 101 t b;
#X text 412 131 Clear list each time message is passed through inlet.
;
#X obj 251 394 list append;
#X obj 483 253 t b;
#X obj 328 111 list append;
#X obj 282 313 t b l;
#X obj 187 93 t b;
#X obj 752 126 map-0-to-1-to-0-to-11;
#X text 504 489 TODO: Comment this patch.;
#X connect 0 0 19 0;
#X connect 3 0 4 0;
#X connect 3 0 12 0;
#X connect 4 0 6 0;
#X connect 5 0 8 0;
#X connect 5 1 7 0;
#X connect 6 0 5 0;
#X connect 6 1 16 1;
#X connect 6 2 15 0;
#X connect 7 0 8 1;
#X connect 8 0 9 0;
#X connect 9 0 10 0;
#X connect 9 0 17 0;
#X connect 10 0 9 1;
#X connect 12 0 9 1;
#X connect 14 0 11 0;
#X connect 15 0 14 0;
#X connect 16 0 6 0;
#X connect 17 0 18 0;
#X connect 17 1 14 1;
#X connect 18 0 16 0;
#X connect 19 0 7 1;
