#N canvas 543 32 714 514 12;
#X obj 147 -24 list split 2;
#X obj 136 7 list split 1;
#X obj 176 56 +;
#X obj 243 36 0;
#X obj 228 131 f;
#X obj 124 -133 inlet;
#X obj 228 257 outlet;
#X obj 124 -106 list;
#X obj 124 -53 list;
#X obj 9 132 list prepend;
#X obj 6 216 list append;
#X obj 6 256 outlet;
#X text 169 -133 weighting list in;
#X text 2 287 running totals;
#X text 224 285 grand total;
#X obj 243 -61 t b;
#X text 183 -100 first \, reset grand total to 0 and delete list stored
in prepend below left (bang to right inlet);
#X obj 124 -81 t l b b;
#X obj 90 -53 t b;
#X obj 277 36 t b b;
#X obj 33 -104 t b;
#X text 264 3 the second element is the weight (middle outlet of split)
;
#X text 326 61 add the weight to the running total;
#X obj 124 84 t b f f f;
#X text 286 83 first store the running total in the + above for the
next iteration \, then store in the f below for output when we're done
\, then store in the list of running totals \, and finally send a bang
to the list above to get the next two elements;
#X obj 80 182 t l l;
#X text 322 35 bang out our results;
#X text 258 154 the prepend makes a new list sticking the list in the
second inlet in front of the list (or here float) in the first inlet.
Once we've done this \, we restore the new list (second inlet to prepend)
into itself for further prepending \, and also in the list below for
banging out when we're done;
#X text 280 -68 get the first two elements of the list and re-store
the rest of the list above for the next iteration. If we're at the
end of the list (bang out of right outlet of split) first output the
grand total then the list of running totals;
#X connect 0 0 1 0;
#X connect 0 1 8 1;
#X connect 0 2 19 0;
#X connect 1 1 2 0;
#X connect 2 0 23 0;
#X connect 3 0 2 1;
#X connect 4 0 6 0;
#X connect 5 0 7 0;
#X connect 7 0 17 0;
#X connect 8 0 0 0;
#X connect 9 0 25 0;
#X connect 10 0 11 0;
#X connect 15 0 3 0;
#X connect 17 0 8 0;
#X connect 17 1 18 0;
#X connect 17 2 15 0;
#X connect 18 0 9 1;
#X connect 19 0 10 0;
#X connect 19 1 4 0;
#X connect 20 0 8 0;
#X connect 23 0 20 0;
#X connect 23 1 9 0;
#X connect 23 2 4 1;
#X connect 23 3 2 1;
#X connect 25 0 10 1;
#X connect 25 1 9 1;
